<svg xmlns="http://www.w3.org/2000/svg" id="Layer_2" data-name="Layer 2" viewBox="0 0 135.53 135.53"><defs><style>      .cls-1, .cls-2 {        fill: none;      }      .cls-1, .cls-3 {        stroke-width: 0px;      }      .cls-2 {        stroke: #221e2e;        stroke-linecap: round;        stroke-linejoin: round;        stroke-width: 7px;      }      .cls-3 {        fill: #48bdd0;      }    </style></defs><g id="Layer_1-2" data-name="Layer 1"><rect class="cls-1" width="135.53" height="135.53"></rect><circle class="cls-3" cx="67.76" cy="67.76" r="53.26"></circle><g><path class="cls-2" d="M99.45,68.08v-21.43c0-5.92-4.8-10.72-10.72-10.72s-10.72,4.8-10.72,10.72v21.43"></path><path class="cls-2" d="M113.74,53.79s3.14,34.73,4.38,48.27c.13,1.36-.32,2.71-1.25,3.73-.93,1.01-2.23,1.59-3.59,1.59h-49.08c-1.38,0-2.68-.58-3.61-1.59s-1.38-2.36-1.25-3.73c1.23-13.54,4.39-48.27,4.39-48.27h50.01Z"></path><path class="cls-2" d="M99.45,53.79v-28.58c0-2.84-1.14-5.57-3.14-7.58-2.02-2.01-4.73-3.14-7.57-3.14h-42.86c-2.86,0-5.57,1.13-7.59,3.14-2,2.01-3.13,4.73-3.13,7.58v85.73c0,2.84,1.13,5.57,3.13,7.58,2.02,2.01,4.73,3.14,7.59,3.14h42.86c2.84,0,5.55-1.13,7.57-3.14,2-2.01,3.14-4.73,3.14-7.58v-3.57"></path><line class="cls-2" x1="61.94" y1="28.79" x2="72.66" y2="28.79"></line></g></g></svg>